<svg width="27" height="20" viewBox="0 0 27 20" fill="none" xmlns="http://www.w3.org/2000/svg">
<path d="M27 20C26.6197 15.8042 24.7434 10.7934 22.4366 8.55703C20.1298 6.3207 15.4313 6.26844 12.169 6.26844C8.90675 6.26844 6.10963 7.08357 3.80284 9.3199C1.49605 11.5562 1.87226e-05 16.9485 0 20H27Z" fill="#010101"/>
<path d="M7.98586 16.7448C10.3582 16.3526 10.2676 15.3542 10.2676 14.1041C10.2676 12.8541 9.24601 11.4634 7.98586 11.4634C5.70417 11.4634 3.80282 12.9724 3.80282 15.6131C3.80282 17.1685 5.70417 17.1221 7.98586 16.7448Z" fill="white"/>
<path d="M9.50705 14.1041C9.50705 14.9375 8.82602 15.6131 7.98592 15.6131C7.14583 15.6131 6.46479 14.9375 6.46479 14.1041C6.46479 13.2707 7.14583 12.5952 7.98592 12.5952C8.82602 12.5952 9.50705 13.2707 9.50705 14.1041Z" fill="black"/>
<path d="M9.50706 13.3496C9.50706 13.7663 9.16654 14.1041 8.74649 14.1041C8.32644 14.1041 7.98593 13.7663 7.98593 13.3496C7.98593 12.9329 8.32644 12.5952 8.74649 12.5952C9.16654 12.5952 9.50706 12.9329 9.50706 13.3496Z" fill="white"/>
<path d="M19.7752 16.7448C17.4028 16.3526 17.4934 15.3542 17.4934 14.1041C17.4934 12.8541 18.515 11.4634 19.7752 11.4634C22.0569 11.4634 23.9582 12.9724 23.9582 15.6131C23.9582 17.1685 22.0569 17.1221 19.7752 16.7448Z" fill="white"/>
<path d="M18.254 14.1041C18.254 14.9375 18.935 15.6131 19.7751 15.6131C20.6152 15.6131 21.2962 14.9375 21.2962 14.1041C21.2962 13.2707 20.6152 12.5952 19.7751 12.5952C18.935 12.5952 18.254 13.2707 18.254 14.1041Z" fill="black"/>
<path d="M18.254 13.3496C18.254 13.7663 18.5945 14.1041 19.0145 14.1041C19.4346 14.1041 19.7751 13.7663 19.7751 13.3496C19.7751 12.9329 19.4346 12.5952 19.0145 12.5952C18.5945 12.5952 18.254 12.9329 18.254 13.3496Z" fill="white"/>
<path d="M13.9984 18.0398C13.8148 18.1672 13.57 18.1611 13.393 18.0245L11.4622 16.5348C11.074 16.2353 11.2854 15.6131 11.7752 15.6131H15.8515C16.3544 15.6131 16.5572 16.2629 16.1438 16.55L13.9984 18.0398Z" fill="white"/>
<path d="M5.87658 0.417517C5.97166 -0.0780472 6.64766 -0.154525 6.85016 0.307372L10.5116 8.65887L7.17689 2.36824C6.9605 1.96005 6.35839 2.02326 6.23074 2.46758L3.98033 10.3004L5.87658 0.417517Z" fill="#010101"/>
<path d="M21.3674 0.654772C21.2723 0.159207 20.5963 0.0827291 20.3938 0.544626L16.7324 8.89613L20.0671 2.6055C20.2835 2.1973 20.8856 2.26052 21.0132 2.70484L23.2636 10.5376L21.3674 0.654772Z" fill="#010101"/>
</svg>
