<svg width="160" height="153" viewBox="0 0 160 153" fill="none" xmlns="http://www.w3.org/2000/svg">
<g opacity="0.1">
<path d="M43.7398 15.7516C44.9447 15.8559 46.1179 16.1169 47.236 16.5264C47.2594 16.5142 47.2838 16.5033 47.3096 16.4948C49.485 15.7809 51.7634 15.6296 53.9855 16.0402C52.4494 14.8884 50.6009 14.266 48.6584 14.266C46.885 14.266 45.1903 14.7851 43.7398 15.7516ZM53.9201 21.7663C55.151 21.7272 56.3791 21.8562 57.5792 22.1515C57.5035 21.6096 57.38 21.0735 57.2096 20.5498C57.2008 20.5471 57.1919 20.5447 57.1832 20.5416C55.4327 19.9175 53.8905 19.6791 52.2931 19.7934C52.3057 19.8062 52.3186 19.8185 52.3311 19.8313C52.922 20.4338 53.4523 21.0815 53.9201 21.7663ZM51.3007 18.8796L51.3043 18.8789C53.1257 18.6124 54.8225 18.7467 56.7077 19.317C56.3782 18.6501 55.9643 18.0159 55.4655 17.4312C53.3401 16.8011 50.8993 16.6843 48.7052 17.1663C49.6241 17.6327 50.4944 18.2057 51.3007 18.8796ZM57.667 23.2237C56.6456 22.9438 55.6005 22.7944 54.5496 22.7774C55.5081 24.4721 56.1077 26.3541 56.3082 28.3248C57.2581 26.7731 57.7109 24.9931 57.667 23.2237ZM55.3845 29.579C55.3276 26.1675 53.9987 22.9688 51.6262 20.5499C49.2356 18.1127 45.9089 16.7557 42.5295 16.7173C42.4463 16.7961 42.3639 16.876 42.2832 16.9584C41.9398 17.3085 41.6281 17.6822 41.3484 18.0753C48.0576 18.6073 53.4256 24.0075 54.0375 30.8371C54.3868 30.5713 54.7198 30.278 55.0336 29.958C55.1549 29.8344 55.2715 29.7078 55.3845 29.579ZM40.0986 20.5567C43.115 20.9583 45.7794 22.2158 47.8302 24.2126C49.9673 26.2934 51.2716 29.0293 51.6182 32.1452C52.1248 31.9662 52.6146 31.7415 53.0825 31.4721C52.7496 24.6992 47.3887 19.3062 40.7387 19.0574C40.4815 19.5371 40.2671 20.0384 40.0986 20.5567ZM40.3531 27.0465C41.1118 25.3489 42.198 23.8168 43.5367 22.5522C42.8709 22.2606 42.1695 22.0223 41.4371 21.8418C40.7472 22.738 40.1756 23.7245 39.7346 24.7782C39.8447 25.5637 40.053 26.3247 40.3531 27.0465ZM39.6763 22.6618C39.8862 22.3047 40.1114 21.9573 40.3515 21.6208C40.1815 21.5932 40.0099 21.569 39.837 21.5475C39.7615 21.9132 39.7078 22.2851 39.6763 22.6618ZM44.8366 27.071C43.969 28.0451 43.2483 29.1514 42.7009 30.3573C44.1442 31.6563 45.9306 32.4389 47.8419 32.6127C47.5625 30.3095 46.465 28.2813 44.8366 27.071ZM48.8486 32.6479C49.4599 32.6351 50.0612 32.5609 50.6454 32.4276C50.3519 29.481 49.1052 26.9186 47.1762 25.0107C46.594 25.4097 46.048 25.8543 45.5422 26.3395C47.3639 27.7521 48.5739 30.0583 48.8486 32.6479ZM41.9511 29.6008C42.9775 27.4856 44.5065 25.6714 46.4081 24.3155C45.823 23.8311 45.1877 23.4002 44.5077 23.0288C42.9274 24.4307 41.6978 26.2244 40.9482 28.2287C41.2375 28.7128 41.5725 29.1721 41.9511 29.6008Z" fill="#B0D5FF"/>
</g>
<g opacity="0.2">
<path d="M22.7398 39.7516C23.9447 39.8559 25.1179 40.1169 26.236 40.5264C26.2594 40.5142 26.2838 40.5033 26.3096 40.4948C28.485 39.7809 30.7634 39.6296 32.9855 40.0402C31.4494 38.8884 29.6009 38.266 27.6584 38.266C25.885 38.266 24.1903 38.7851 22.7398 39.7516ZM32.9201 45.7663C34.151 45.7272 35.3791 45.8562 36.5792 46.1515C36.5035 45.6096 36.38 45.0735 36.2096 44.5498C36.2008 44.5471 36.1919 44.5447 36.1832 44.5416C34.4327 43.9175 32.8905 43.6791 31.2931 43.7934C31.3057 43.8062 31.3186 43.8185 31.3311 43.8313C31.922 44.4338 32.4523 45.0815 32.9201 45.7663ZM30.3007 42.8796L30.3043 42.8789C32.1257 42.6124 33.8225 42.7467 35.7077 43.317C35.3782 42.6501 34.9643 42.0159 34.4655 41.4312C32.3401 40.8011 29.8993 40.6843 27.7052 41.1663C28.6241 41.6327 29.4944 42.2057 30.3007 42.8796ZM36.667 47.2237C35.6456 46.9438 34.6005 46.7944 33.5496 46.7774C34.5081 48.4721 35.1077 50.3541 35.3082 52.3248C36.2581 50.7731 36.7109 48.9931 36.667 47.2237ZM34.3845 53.579C34.3276 50.1675 32.9987 46.9688 30.6262 44.5499C28.2356 42.1127 24.9089 40.7557 21.5295 40.7173C21.4463 40.7961 21.3639 40.876 21.2832 40.9584C20.9398 41.3085 20.6281 41.6822 20.3484 42.0753C27.0576 42.6073 32.4256 48.0075 33.0375 54.8371C33.3868 54.5713 33.7198 54.278 34.0336 53.958C34.1549 53.8344 34.2715 53.7078 34.3845 53.579ZM19.0986 44.5567C22.115 44.9583 24.7794 46.2158 26.8302 48.2126C28.9673 50.2934 30.2716 53.0293 30.6182 56.1452C31.1248 55.9662 31.6146 55.7415 32.0825 55.4721C31.7496 48.6992 26.3887 43.3062 19.7387 43.0574C19.4815 43.5371 19.2671 44.0384 19.0986 44.5567ZM19.3531 51.0465C20.1118 49.3489 21.198 47.8168 22.5367 46.5522C21.8709 46.2606 21.1695 46.0223 20.4371 45.8418C19.7472 46.738 19.1756 47.7245 18.7346 48.7782C18.8447 49.5637 19.053 50.3247 19.3531 51.0465ZM18.6763 46.6618C18.8862 46.3047 19.1114 45.9573 19.3515 45.6208C19.1815 45.5932 19.0099 45.569 18.837 45.5475C18.7615 45.9132 18.7078 46.2851 18.6763 46.6618ZM23.8366 51.071C22.969 52.0451 22.2483 53.1514 21.7009 54.3573C23.1442 55.6563 24.9306 56.4389 26.8419 56.6127C26.5625 54.3095 25.465 52.2813 23.8366 51.071ZM27.8486 56.6479C28.4599 56.6351 29.0612 56.5609 29.6454 56.4276C29.3519 53.481 28.1052 50.9186 26.1762 49.0107C25.594 49.4097 25.048 49.8543 24.5422 50.3395C26.3639 51.7521 27.5739 54.0583 27.8486 56.6479ZM20.9511 53.6008C21.9775 51.4856 23.5065 49.6714 25.4081 48.3155C24.823 47.8311 24.1877 47.4002 23.5077 47.0288C21.9274 48.4307 20.6978 50.2244 19.9482 52.2287C20.2375 52.7128 20.5725 53.1721 20.9511 53.6008Z" fill="#9DC5F4"/>
<path d="M25.1549 44.2417C25.8966 44.1503 26.6007 43.9436 27.2497 43.6407C28.1004 43.9655 29.029 44.1286 29.9964 44.0937L30.1657 44.0876C30.4085 44.3837 30.6789 44.6636 30.9766 44.9237L31.1828 45.3438C31.4757 45.9402 31.8421 46.4764 32.2658 46.9469C32.3208 47.2497 32.3964 47.5513 32.4932 47.8499C32.4726 47.9712 32.4552 48.0926 32.4412 48.2139C32.1199 48.6768 31.8498 49.1861 31.6417 49.7371L31.4143 50.3391L31.3209 50.4588C31.0657 50.7856 30.8442 51.128 30.6557 51.4818C30.4251 51.6902 30.2059 51.9162 30.0001 52.1595C29.6964 52.3336 29.4105 52.5273 29.1431 52.7382C29.1202 52.7455 29.0974 52.7529 29.0746 52.7604C28.6169 52.7168 28.1643 52.7187 27.7214 52.7626C27.314 52.5868 26.8847 52.4478 26.437 52.3504C26.0316 51.9986 25.596 51.7013 25.1397 51.4585C24.8212 50.9333 24.4278 50.4416 23.9599 49.9992L23.6841 49.7384L23.556 49.4327C23.314 48.8548 23.0035 48.3265 22.6379 47.8531C22.6324 47.8128 22.6265 47.7724 22.6203 47.732C23.0232 47.3415 23.3853 46.8959 23.6951 46.3978L24.4446 45.1928L24.9773 44.4875C25.0386 44.4064 25.0978 44.3245 25.1549 44.2417Z" stroke="#65A7B6" stroke-opacity="0.12" stroke-width="14" stroke-linecap="round" stroke-linejoin="round" stroke-dasharray="8 8"/>
</g>
<g opacity="0.3">
<path d="M13.7398 66.7516C14.9447 66.8559 16.1179 67.1169 17.236 67.5264C17.2594 67.5142 17.2838 67.5033 17.3096 67.4948C19.485 66.7809 21.7634 66.6296 23.9855 67.0402C22.4494 65.8884 20.6009 65.266 18.6584 65.266C16.885 65.266 15.1903 65.7851 13.7398 66.7516ZM23.9201 72.7663C25.151 72.7272 26.3791 72.8562 27.5792 73.1515C27.5035 72.6096 27.38 72.0735 27.2096 71.5498C27.2008 71.5471 27.1919 71.5447 27.1832 71.5416C25.4327 70.9175 23.8905 70.6791 22.2931 70.7934C22.3057 70.8062 22.3186 70.8185 22.3311 70.8313C22.922 71.4338 23.4523 72.0815 23.9201 72.7663ZM21.3007 69.8796L21.3043 69.8789C23.1257 69.6124 24.8225 69.7467 26.7077 70.317C26.3782 69.6501 25.9643 69.0159 25.4655 68.4312C23.3401 67.8011 20.8993 67.6843 18.7052 68.1663C19.6241 68.6327 20.4944 69.2057 21.3007 69.8796ZM27.667 74.2237C26.6456 73.9438 25.6005 73.7944 24.5496 73.7774C25.5081 75.4721 26.1077 77.3541 26.3082 79.3248C27.2581 77.7731 27.7109 75.9931 27.667 74.2237ZM25.3845 80.579C25.3276 77.1675 23.9987 73.9688 21.6262 71.5499C19.2356 69.1127 15.9089 67.7557 12.5295 67.7173C12.4463 67.7961 12.3639 67.876 12.2832 67.9584C11.9398 68.3085 11.6281 68.6822 11.3484 69.0753C18.0576 69.6073 23.4256 75.0075 24.0375 81.8371C24.3868 81.5713 24.7198 81.278 25.0336 80.958C25.1549 80.8344 25.2715 80.7078 25.3845 80.579ZM10.0986 71.5567C13.115 71.9583 15.7794 73.2158 17.8302 75.2126C19.9673 77.2934 21.2716 80.0293 21.6182 83.1452C22.1248 82.9662 22.6146 82.7415 23.0825 82.4721C22.7496 75.6992 17.3887 70.3062 10.7387 70.0574C10.4815 70.5371 10.2671 71.0384 10.0986 71.5567ZM10.3531 78.0465C11.1118 76.3489 12.198 74.8168 13.5367 73.5522C12.8709 73.2606 12.1695 73.0223 11.4371 72.8418C10.7472 73.738 10.1756 74.7245 9.73461 75.7782C9.84468 76.5637 10.053 77.3247 10.3531 78.0465ZM9.67627 73.6618C9.88619 73.3047 10.1114 72.9573 10.3515 72.6208C10.1815 72.5932 10.0099 72.569 9.837 72.5475C9.76153 72.9132 9.70776 73.2851 9.67627 73.6618ZM14.8366 78.071C13.969 79.0451 13.2483 80.1514 12.7009 81.3573C14.1442 82.6563 15.9306 83.4389 17.8419 83.6127C17.5625 81.3095 16.465 79.2813 14.8366 78.071ZM18.8486 83.6479C19.4599 83.6351 20.0612 83.5609 20.6454 83.4276C20.3519 80.481 19.1052 77.9186 17.1762 76.0107C16.594 76.4097 16.048 76.8543 15.5422 77.3395C17.3639 78.7521 18.5739 81.0583 18.8486 83.6479ZM11.9511 80.6008C12.9775 78.4856 14.5065 76.6714 16.4081 75.3155C15.823 74.8311 15.1877 74.4002 14.5077 74.0288C12.9274 75.4307 11.6978 77.2244 10.9482 79.2287C11.2375 79.7128 11.5725 80.1721 11.9511 80.6008Z" fill="#678CB8"/>
</g>
<g opacity="0.4">
<path d="M23.7398 100.752C24.9447 100.856 26.1179 101.117 27.236 101.526C27.2594 101.514 27.2838 101.503 27.3096 101.495C29.485 100.781 31.7634 100.63 33.9855 101.04C32.4494 99.8884 30.6009 99.266 28.6584 99.266C26.885 99.266 25.1903 99.7851 23.7398 100.752ZM33.9201 106.766C35.151 106.727 36.3791 106.856 37.5792 107.152C37.5035 106.61 37.38 106.073 37.2096 105.55C37.2008 105.547 37.1919 105.545 37.1832 105.542C35.4327 104.917 33.8905 104.679 32.2931 104.793C32.3057 104.806 32.3186 104.818 32.3311 104.831C32.922 105.434 33.4523 106.082 33.9201 106.766ZM31.3007 103.88L31.3043 103.879C33.1257 103.612 34.8225 103.747 36.7077 104.317C36.3782 103.65 35.9643 103.016 35.4655 102.431C33.3401 101.801 30.8993 101.684 28.7052 102.166C29.6241 102.633 30.4944 103.206 31.3007 103.88ZM37.667 108.224C36.6456 107.944 35.6005 107.794 34.5496 107.777C35.5081 109.472 36.1077 111.354 36.3082 113.325C37.2581 111.773 37.7109 109.993 37.667 108.224ZM35.3845 114.579C35.3276 111.168 33.9987 107.969 31.6262 105.55C29.2356 103.113 25.9089 101.756 22.5295 101.717C22.4463 101.796 22.3639 101.876 22.2832 101.958C21.9398 102.308 21.6281 102.682 21.3484 103.075C28.0576 103.607 33.4256 109.007 34.0375 115.837C34.3868 115.571 34.7198 115.278 35.0336 114.958C35.1549 114.834 35.2715 114.708 35.3845 114.579ZM20.0986 105.557C23.115 105.958 25.7794 107.216 27.8302 109.213C29.9673 111.293 31.2716 114.029 31.6182 117.145C32.1248 116.966 32.6146 116.742 33.0825 116.472C32.7496 109.699 27.3887 104.306 20.7387 104.057C20.4815 104.537 20.2671 105.038 20.0986 105.557ZM20.3531 112.046C21.1118 110.349 22.198 108.817 23.5367 107.552C22.8709 107.261 22.1695 107.022 21.4371 106.842C20.7472 107.738 20.1756 108.724 19.7346 109.778C19.8447 110.564 20.053 111.325 20.3531 112.046ZM19.6763 107.662C19.8862 107.305 20.1114 106.957 20.3515 106.621C20.1815 106.593 20.0099 106.569 19.837 106.548C19.7615 106.913 19.7078 107.285 19.6763 107.662ZM24.8366 112.071C23.969 113.045 23.2483 114.151 22.7009 115.357C24.1442 116.656 25.9306 117.439 27.8419 117.613C27.5625 115.31 26.465 113.281 24.8366 112.071ZM28.8486 117.648C29.4599 117.635 30.0612 117.561 30.6454 117.428C30.3519 114.481 29.1052 111.919 27.1762 110.011C26.594 110.41 26.048 110.854 25.5422 111.339C27.3639 112.752 28.5739 115.058 28.8486 117.648ZM21.9511 114.601C22.9775 112.486 24.5065 110.671 26.4081 109.316C25.823 108.831 25.1877 108.4 24.5077 108.029C22.9274 109.431 21.6978 111.224 20.9482 113.229C21.2375 113.713 21.5725 114.172 21.9511 114.601Z" fill="#33576D"/>
</g>
<g opacity="0.5">
<path d="M52.7398 125.752C53.9447 125.856 55.1179 126.117 56.236 126.526C56.2594 126.514 56.2838 126.503 56.3096 126.495C58.485 125.781 60.7634 125.63 62.9855 126.04C61.4494 124.888 59.6009 124.266 57.6584 124.266C55.885 124.266 54.1903 124.785 52.7398 125.752ZM62.9201 131.766C64.151 131.727 65.3791 131.856 66.5792 132.152C66.5035 131.61 66.38 131.073 66.2096 130.55C66.2008 130.547 66.1919 130.545 66.1832 130.542C64.4327 129.917 62.8905 129.679 61.2931 129.793C61.3057 129.806 61.3186 129.818 61.3311 129.831C61.922 130.434 62.4523 131.082 62.9201 131.766ZM60.3007 128.88L60.3043 128.879C62.1257 128.612 63.8225 128.747 65.7077 129.317C65.3782 128.65 64.9643 128.016 64.4655 127.431C62.3401 126.801 59.8993 126.684 57.7052 127.166C58.6241 127.633 59.4944 128.206 60.3007 128.88ZM66.667 133.224C65.6456 132.944 64.6005 132.794 63.5496 132.777C64.5081 134.472 65.1077 136.354 65.3082 138.325C66.2581 136.773 66.7109 134.993 66.667 133.224ZM64.3845 139.579C64.3276 136.168 62.9987 132.969 60.6262 130.55C58.2356 128.113 54.9089 126.756 51.5295 126.717C51.4463 126.796 51.3639 126.876 51.2832 126.958C50.9398 127.308 50.6281 127.682 50.3484 128.075C57.0576 128.607 62.4256 134.007 63.0375 140.837C63.3868 140.571 63.7198 140.278 64.0336 139.958C64.1549 139.834 64.2715 139.708 64.3845 139.579ZM49.0986 130.557C52.115 130.958 54.7794 132.216 56.8302 134.213C58.9673 136.293 60.2716 139.029 60.6182 142.145C61.1248 141.966 61.6146 141.742 62.0825 141.472C61.7496 134.699 56.3887 129.306 49.7387 129.057C49.4815 129.537 49.2671 130.038 49.0986 130.557ZM49.3531 137.046C50.1118 135.349 51.198 133.817 52.5367 132.552C51.8709 132.261 51.1695 132.022 50.4371 131.842C49.7472 132.738 49.1756 133.724 48.7346 134.778C48.8447 135.564 49.053 136.325 49.3531 137.046ZM48.6763 132.662C48.8862 132.305 49.1114 131.957 49.3515 131.621C49.1815 131.593 49.0099 131.569 48.837 131.548C48.7615 131.913 48.7078 132.285 48.6763 132.662ZM53.8366 137.071C52.969 138.045 52.2483 139.151 51.7009 140.357C53.1442 141.656 54.9306 142.439 56.8419 142.613C56.5625 140.31 55.465 138.281 53.8366 137.071ZM57.8486 142.648C58.4599 142.635 59.0612 142.561 59.6454 142.428C59.3519 139.481 58.1052 136.919 56.1762 135.011C55.594 135.41 55.048 135.854 54.5422 136.339C56.3639 137.752 57.5739 140.058 57.8486 142.648ZM50.9511 139.601C51.9775 137.486 53.5065 135.671 55.4081 134.316C54.823 133.831 54.1877 133.4 53.5077 133.029C51.9274 134.431 50.6978 136.224 49.9482 138.229C50.2375 138.713 50.5725 139.172 50.9511 139.601Z" fill="#395779"/>
</g>
<g opacity="0.6">
<path d="M83.1656 127.238C84.3557 127.453 85.4999 127.821 86.5754 128.332C86.5999 128.322 86.6251 128.313 86.6516 128.307C88.8836 127.797 91.1662 127.857 93.341 128.471C91.9177 127.182 90.1345 126.392 88.2003 126.212C86.4345 126.049 84.6991 126.409 83.1656 127.238ZM92.7475 134.166C93.9769 134.241 95.1878 134.483 96.3555 134.887C96.3301 134.341 96.2566 133.795 96.1353 133.258C96.1268 133.255 96.1182 133.252 96.1098 133.248C94.4243 132.465 92.9107 132.085 91.3095 132.052C91.3209 132.065 91.3326 132.079 91.3438 132.093C91.8767 132.747 92.3449 133.441 92.7475 134.166ZM90.4057 131.05L90.4093 131.05C92.2476 130.952 93.9248 131.243 95.7493 131.984C95.4827 131.29 95.129 130.62 94.6863 129.992C92.6281 129.169 90.2085 128.827 87.9794 129.105C88.8513 129.654 89.665 130.305 90.4057 131.05ZM96.3441 135.963C95.3528 135.59 94.3259 135.345 93.2812 135.231C94.0791 137.007 94.5026 138.936 94.5204 140.917C95.6094 139.46 96.2245 137.729 96.3441 135.963ZM93.4849 142.081C93.7431 138.678 92.7149 135.371 90.5757 132.743C88.4202 130.096 85.2328 128.438 81.8714 128.088C81.7813 128.159 81.6918 128.231 81.6038 128.305C81.2296 128.622 80.8848 128.965 80.57 129.331C87.2015 130.48 92.0485 136.352 92.0276 143.209C92.4 142.977 92.7586 142.715 93.1006 142.426C93.2328 142.314 93.3606 142.198 93.4849 142.081ZM79.0967 131.687C82.0631 132.365 84.6002 133.863 86.458 136.04C88.394 138.309 89.4402 141.154 89.4979 144.288C90.0189 144.157 90.5274 143.978 91.0181 143.753C91.3114 136.979 86.471 131.114 79.8723 130.253C79.5719 130.707 79.3122 131.186 79.0967 131.687ZM78.7513 138.172C79.6634 136.552 80.8862 135.126 82.336 133.991C81.6999 133.639 81.0235 133.337 80.3108 133.09C79.5412 133.918 78.8811 134.848 78.3447 135.857C78.3818 136.649 78.5191 137.426 78.7513 138.172ZM78.4819 133.744C78.7239 133.407 78.9801 133.082 79.2503 132.769C79.0835 132.726 78.9149 132.686 78.7447 132.649C78.6358 133.006 78.548 133.371 78.4819 133.744ZM83.2134 138.61C82.2597 139.5 81.44 140.535 80.7836 141.685C82.1009 143.112 83.8075 144.056 85.6946 144.406C85.6289 142.086 84.7232 139.966 83.2134 138.61ZM86.6938 144.533C87.3036 144.577 87.9092 144.559 88.5033 144.48C88.4829 141.519 87.4778 138.852 85.7331 136.775C85.1165 137.118 84.5319 137.51 83.9835 137.947C85.6671 139.522 86.6592 141.93 86.6938 144.533ZM80.1068 140.863C81.324 138.851 83.0139 137.186 85.0325 136.011C84.4945 135.475 83.9017 134.987 83.2589 134.555C81.5559 135.805 80.1661 137.478 79.2348 139.404C79.4782 139.913 79.7694 140.401 80.1068 140.863Z" fill="#35465A"/>
</g>
<g opacity="0.7">
<path d="M110.74 133.06C111.945 132.956 113.118 132.695 114.236 132.286C114.259 132.298 114.284 132.309 114.31 132.317C116.485 133.031 118.763 133.182 120.986 132.772C119.449 133.924 117.601 134.546 115.658 134.546C113.885 134.546 112.19 134.027 110.74 133.06ZM120.92 127.046C122.151 127.085 123.379 126.956 124.579 126.66C124.503 127.202 124.38 127.739 124.21 128.262C124.201 128.265 124.192 128.267 124.183 128.27C122.433 128.895 120.891 129.133 119.293 129.019C119.306 129.006 119.319 128.994 119.331 128.981C119.922 128.378 120.452 127.73 120.92 127.046ZM118.301 129.932L118.304 129.933C120.126 130.2 121.823 130.065 123.708 129.495C123.378 130.162 122.964 130.796 122.465 131.381C120.34 132.011 117.899 132.128 115.705 131.646C116.624 131.179 117.494 130.606 118.301 129.932ZM124.667 125.588C123.646 125.868 122.6 126.018 121.55 126.035C122.508 124.34 123.108 122.458 123.308 120.487C124.258 122.039 124.711 123.819 124.667 125.588ZM122.384 119.233C122.328 122.644 120.999 125.843 118.626 128.262C116.236 130.699 112.909 132.056 109.529 132.095C109.446 132.016 109.364 131.936 109.283 131.854C108.94 131.504 108.628 131.13 108.348 130.737C115.058 130.205 120.426 124.805 121.037 117.975C121.387 118.241 121.72 118.534 122.034 118.854C122.155 118.978 122.272 119.104 122.384 119.233ZM107.099 128.255C110.115 127.854 112.779 126.596 114.83 124.599C116.967 122.519 118.272 119.783 118.618 116.667C119.125 116.846 119.615 117.071 120.082 117.34C119.75 124.113 114.389 129.506 107.739 129.755C107.481 129.275 107.267 128.774 107.099 128.255ZM107.353 121.766C108.112 123.463 109.198 124.995 110.537 126.26C109.871 126.551 109.17 126.79 108.437 126.97C107.747 126.074 107.176 125.088 106.735 124.034C106.845 123.248 107.053 122.487 107.353 121.766ZM106.676 126.15C106.886 126.507 107.111 126.855 107.352 127.191C107.181 127.219 107.01 127.243 106.837 127.264C106.762 126.899 106.708 126.527 106.676 126.15ZM111.837 121.741C110.969 120.767 110.248 119.661 109.701 118.455C111.144 117.156 112.931 116.373 114.842 116.199C114.563 118.502 113.465 120.531 111.837 121.741ZM115.849 116.164C116.46 116.177 117.061 116.251 117.645 116.384C117.352 119.331 116.105 121.893 114.176 123.801C113.594 123.402 113.048 122.958 112.542 122.473C114.364 121.06 115.574 118.754 115.849 116.164ZM108.951 119.211C109.977 121.326 111.507 123.141 113.408 124.496C112.823 124.981 112.188 125.412 111.508 125.783C109.927 124.381 108.698 122.588 107.948 120.583C108.238 120.099 108.572 119.64 108.951 119.211Z" fill="#34475E"/>
</g>
<g opacity="0.8">
<path d="M127.613 96.5858C128.688 96.0318 129.82 95.6272 130.984 95.3777C130.997 95.3549 131.012 95.3327 131.029 95.3117C132.489 93.5481 134.336 92.2056 136.435 91.3685C134.522 91.2128 132.626 91.6716 130.982 92.707C129.482 93.6523 128.325 94.9949 127.613 96.5858ZM139.432 96.2481C140.453 95.5588 141.561 95.0133 142.733 94.6235C142.381 94.2053 141.99 93.8175 141.567 93.4653C141.558 93.4678 141.549 93.4705 141.54 93.4725C139.726 93.8776 138.295 94.4979 137.004 95.4462C137.021 95.4502 137.039 95.4538 137.056 95.4579C137.877 95.6527 138.671 95.9181 139.432 96.2481ZM135.677 95.202L135.68 95.1995C137.079 94.0031 138.586 93.2122 140.485 92.6898C139.851 92.3012 139.163 91.9853 138.429 91.7565C136.295 92.3563 134.167 93.5586 132.568 95.1359C133.594 95.0407 134.636 95.0616 135.677 95.202ZM143.379 95.4838C142.366 95.7915 141.402 96.2222 140.504 96.7679C142.218 97.6909 143.729 98.9636 144.949 100.524C144.925 98.7049 144.36 96.9575 143.379 95.4838ZM144.836 102.078C142.969 99.2216 140.14 97.2236 136.843 96.4417C133.521 95.6539 129.983 96.2791 127.103 98.048C127.075 98.159 127.048 98.2706 127.024 98.3833C126.92 98.8626 126.855 99.3449 126.828 99.8266C132.788 96.7003 140.209 98.4079 144.367 103.86C144.521 103.449 144.646 103.023 144.741 102.585C144.778 102.416 144.809 102.247 144.836 102.078ZM127.093 102.592C129.86 101.324 132.784 100.968 135.584 101.564C138.501 102.185 141.063 103.805 143.017 106.257C143.35 105.835 143.645 105.384 143.897 104.906C140.005 99.3535 132.595 97.6482 126.836 100.983C126.874 101.526 126.96 102.064 127.093 102.592ZM130.768 107.947C130.505 106.107 130.607 104.232 131.066 102.448C130.347 102.556 129.627 102.728 128.911 102.966C128.805 104.092 128.847 105.231 129.036 106.358C129.548 106.964 130.129 107.497 130.768 107.947ZM127.858 104.598C127.845 104.184 127.851 103.77 127.875 103.358C127.716 103.425 127.558 103.496 127.4 103.57C127.531 103.92 127.684 104.263 127.858 104.598ZM134.575 105.578C134.36 106.865 134.34 108.185 134.519 109.497C136.433 109.827 138.362 109.537 140.071 108.665C138.607 106.865 136.598 105.734 134.575 105.578ZM140.942 108.158C141.452 107.822 141.921 107.438 142.345 107.014C140.526 104.677 138.105 103.174 135.456 102.588C135.176 103.236 134.951 103.903 134.782 104.583C137.076 104.807 139.329 106.114 140.942 108.158ZM133.482 109.257C133.223 106.92 133.549 104.57 134.435 102.409C133.682 102.311 132.915 102.285 132.142 102.334C131.552 104.362 131.468 106.535 131.902 108.631C132.405 108.886 132.933 109.096 133.482 109.257Z" fill="#1D252F"/>
</g>
<g opacity="0.9">
<path d="M137.091 64.1815C138.209 63.7202 139.371 63.4126 140.552 63.2624C140.568 63.2408 140.584 63.2199 140.603 63.2005C142.207 61.5665 144.161 60.3847 146.323 59.7279C144.429 59.4112 142.501 59.7082 140.776 60.6011C139.202 61.4163 137.935 62.6563 137.091 64.1815ZM148.897 64.8432C149.972 64.2426 151.122 63.7927 152.324 63.5033C152.007 63.0568 151.651 62.6375 151.259 62.2507C151.25 62.2524 151.241 62.2544 151.232 62.2556C149.39 62.506 147.911 63.0032 146.545 63.8391C146.562 63.8446 146.579 63.8496 146.596 63.8552C147.398 64.1187 148.167 64.4502 148.897 64.8432ZM145.244 63.4837L145.247 63.4814C146.742 62.4075 148.31 61.7467 150.247 61.3866C149.648 60.9458 148.988 60.5729 148.277 60.283C146.1 60.7004 143.878 61.7187 142.151 63.1553C143.182 63.1471 144.218 63.2559 145.244 63.4837ZM152.895 64.4151C151.859 64.6361 150.862 64.9838 149.921 65.4518C151.551 66.5162 152.949 67.9119 154.033 69.5699C154.163 67.7553 153.747 65.9663 152.895 64.4151ZM153.789 71.1084C152.17 68.1049 149.52 65.875 146.301 64.8175C143.057 63.7519 139.479 64.0761 136.46 65.5954C136.423 65.7036 136.386 65.8125 136.352 65.9228C136.208 66.3915 136.103 66.8666 136.036 67.3444C142.239 64.7327 149.488 67.0609 153.171 72.8449C153.359 72.4482 153.52 72.0347 153.652 71.6062C153.702 71.4407 153.748 71.2747 153.789 71.1084ZM136.066 70.1226C138.93 69.0927 141.874 68.9846 144.613 69.8152C147.468 70.6807 149.884 72.5109 151.624 75.1187C151.991 74.7269 152.323 74.3021 152.615 73.8478C149.206 67.9859 141.966 65.6609 135.946 68.4968C135.938 69.0411 135.978 69.5849 136.066 70.1226ZM139.276 75.769C139.169 73.9127 139.429 72.0528 140.037 70.3143C139.312 70.3614 138.579 70.4722 137.846 70.6486C137.645 71.7616 137.591 72.9004 137.684 74.039C138.143 74.6859 138.677 75.266 139.276 75.769ZM136.659 72.1862C136.681 71.7726 136.722 71.3605 136.78 70.9513C136.616 71.005 136.453 71.0624 136.29 71.1228C136.391 71.4822 136.514 71.8372 136.659 72.1862ZM143.269 73.7299C142.946 74.9937 142.814 76.3075 142.883 77.6301C144.762 78.1202 146.708 77.994 148.485 77.2698C147.178 75.3528 145.271 74.0561 143.269 73.7299ZM149.395 76.8383C149.932 76.5459 150.432 76.2037 150.89 75.8167C149.275 73.3347 146.989 71.6323 144.399 70.8247C144.066 71.4466 143.785 72.0924 143.559 72.7558C145.826 73.1729 147.961 74.6647 149.395 76.8383ZM141.869 77.3029C141.808 74.9526 142.332 72.6386 143.398 70.5603C142.655 70.399 141.893 70.3084 141.118 70.2912C140.359 72.2627 140.092 74.4208 140.348 76.5454C140.827 76.8423 141.336 77.0962 141.869 77.3029Z" fill="#262C33"/>
</g>
<path d="M119.826 36.8903C120.565 35.9332 121.419 35.0875 122.368 34.3687C122.371 34.3423 122.375 34.316 122.382 34.2896C122.958 32.0738 124.063 30.0755 125.61 28.4286C123.81 29.0977 122.287 30.3158 121.236 31.9497C120.277 33.4413 119.797 35.1475 119.826 36.8903ZM130.391 31.5807C131.024 30.5242 131.797 29.561 132.694 28.7114C132.197 28.4819 131.68 28.2958 131.147 28.1559C131.14 28.1619 131.133 28.168 131.126 28.1737C129.654 29.3085 128.619 30.4767 127.852 31.8821C127.869 31.8784 127.886 31.8742 127.904 31.8707C128.73 31.6995 129.562 31.6038 130.391 31.5807ZM126.546 32.2226L126.547 32.2192C127.308 30.543 128.339 29.1884 129.839 27.9112C129.099 27.8277 128.342 27.8329 127.581 27.9361C125.901 29.383 124.483 31.3728 123.701 33.4789C124.591 32.9583 125.543 32.5363 126.546 32.2226ZM133.643 29.2174C132.855 29.9251 132.164 30.7234 131.582 31.598C133.526 31.7085 135.433 32.2221 137.199 33.1193C136.408 31.4811 135.155 30.1375 133.643 29.2174ZM137.754 34.5747C134.854 32.7773 131.445 32.165 128.127 32.8522C124.784 33.5447 121.843 35.6089 119.983 38.4305C120.005 38.5431 120.027 38.6557 120.053 38.7681C120.162 39.2463 120.307 39.7106 120.487 40.1585C124.563 34.8031 132.009 33.2088 138.084 36.3881C138.049 35.9505 137.983 35.5118 137.883 35.0747C137.845 34.9059 137.802 34.7393 137.754 34.5747ZM121.898 42.5518C123.867 40.2319 126.366 38.671 129.155 38.0261C132.061 37.354 135.067 37.7368 137.876 39.1305C137.999 38.6076 138.075 38.074 138.101 37.5348C132.225 34.1515 124.789 35.7437 120.983 41.2025C121.247 41.6783 121.553 42.1298 121.898 42.5518ZM127.494 45.8478C126.477 44.2916 125.775 42.5493 125.436 40.7393C124.831 41.1416 124.251 41.6027 123.703 42.1211C124.083 43.1861 124.604 44.2004 125.252 45.1413C125.972 45.4735 126.725 45.7099 127.494 45.8478ZM123.44 44.0456C123.253 43.6759 123.083 43.2986 122.93 42.9146C122.815 43.0427 122.701 43.174 122.59 43.3078C122.857 43.569 123.14 43.8154 123.44 44.0456ZM129.94 42.0901C130.29 43.3466 130.831 44.5512 131.549 45.6639C133.422 45.1525 135.046 44.0732 136.226 42.5596C134.138 41.5489 131.839 41.375 129.94 42.0901ZM136.801 41.7319C137.12 41.2108 137.383 40.665 137.587 40.1014C134.95 38.7545 132.12 38.4173 129.472 39.0079C129.493 39.7134 129.572 40.4131 129.706 41.1009C131.88 40.3327 134.474 40.5623 136.801 41.7319ZM130.507 45.8853C129.283 43.878 128.584 41.6106 128.472 39.2778C127.748 39.508 127.042 39.8093 126.362 40.1803C126.686 42.2678 127.53 44.2722 128.81 45.9868C129.374 46.0052 129.942 45.9719 130.507 45.8853Z" fill="#262A2F"/>
<path d="M96.7398 10.7516C97.9447 10.8559 99.1179 11.1169 100.236 11.5264C100.259 11.5142 100.284 11.5033 100.31 11.4948C102.485 10.7809 104.763 10.6296 106.986 11.0402C105.449 9.88845 103.601 9.26599 101.658 9.26599C99.885 9.26605 98.1903 9.78508 96.7398 10.7516ZM106.92 16.7663C108.151 16.7272 109.379 16.8562 110.579 17.1515C110.503 16.6096 110.38 16.0735 110.21 15.5498C110.201 15.5471 110.192 15.5447 110.183 15.5416C108.433 14.9175 106.891 14.6791 105.293 14.7934C105.306 14.8062 105.319 14.8185 105.331 14.8313C105.922 15.4338 106.452 16.0815 106.92 16.7663ZM104.301 13.8796L104.304 13.8789C106.126 13.6124 107.823 13.7467 109.708 14.317C109.378 13.6501 108.964 13.0159 108.465 12.4312C106.34 11.8011 103.899 11.6843 101.705 12.1663C102.624 12.6327 103.494 13.2057 104.301 13.8796ZM110.667 18.2237C109.646 17.9438 108.6 17.7944 107.55 17.7774C108.508 19.4721 109.108 21.3541 109.308 23.3248C110.258 21.7731 110.711 19.9931 110.667 18.2237ZM108.384 24.579C108.328 21.1675 106.999 17.9688 104.626 15.5499C102.236 13.1127 98.9089 11.7557 95.5295 11.7173C95.4463 11.7961 95.3639 11.876 95.2832 11.9584C94.9398 12.3085 94.6281 12.6822 94.3484 13.0753C101.058 13.6073 106.426 19.0075 107.037 25.8371C107.387 25.5713 107.72 25.278 108.034 24.958C108.155 24.8344 108.272 24.7078 108.384 24.579ZM93.0986 15.5567C96.115 15.9583 98.7794 17.2158 100.83 19.2126C102.967 21.2934 104.272 24.0293 104.618 27.1452C105.125 26.9662 105.615 26.7415 106.082 26.4721C105.75 19.6992 100.389 14.3062 93.7387 14.0574C93.4815 14.5371 93.2671 15.0384 93.0986 15.5567ZM93.3531 22.0465C94.1118 20.3489 95.198 18.8168 96.5367 17.5522C95.8709 17.2606 95.1695 17.0223 94.4371 16.8418C93.7472 17.738 93.1756 18.7245 92.7346 19.7782C92.8447 20.5637 93.053 21.3247 93.3531 22.0465ZM92.6763 17.6618C92.8862 17.3047 93.1114 16.9573 93.3515 16.6208C93.1815 16.5932 93.0099 16.569 92.837 16.5475C92.7615 16.9132 92.7078 17.2851 92.6763 17.6618ZM97.8366 22.071C96.969 23.0451 96.2483 24.1514 95.7009 25.3573C97.1442 26.6563 98.9306 27.4389 100.842 27.6127C100.563 25.3095 99.465 23.2813 97.8366 22.071ZM101.849 27.6479C102.46 27.6351 103.061 27.5609 103.645 27.4276C103.352 24.481 102.105 21.9186 100.176 20.0107C99.594 20.4097 99.048 20.8543 98.5422 21.3395C100.364 22.7521 101.574 25.0583 101.849 27.6479ZM94.9511 24.6008C95.9775 22.4856 97.5065 20.6714 99.4081 19.3155C98.823 18.8311 98.1877 18.4002 97.5077 18.0288C95.9274 19.4307 94.6978 21.2244 93.9482 23.2287C94.2375 23.7128 94.5725 24.1721 94.9511 24.6008Z" fill="black"/>
</svg>
