<svg width="102" height="51" viewBox="0 0 102 51" fill="none" xmlns="http://www.w3.org/2000/svg">
<path d="M83.0625 51C82.1607 41.0922 77.7113 29.2595 72.2411 23.9787C66.7708 18.6978 55.629 18.5744 47.8929 18.5744C40.1568 18.5744 33.5238 20.4993 28.0536 25.7801C22.5834 31.061 19.0357 43.7943 19.0357 51H51.2981H83.0625Z" fill="#010101"/>
<path d="M37.9731 43.3132C43.5989 42.387 43.3839 40.0294 43.3839 37.0775C43.3839 34.1256 40.9613 30.8418 37.9731 30.8418C32.5623 30.8418 28.0536 34.4051 28.0536 40.6408C28.0536 44.3137 32.5624 44.2041 37.9731 43.3132Z" fill="white"/>
<ellipse cx="37.9732" cy="37.0775" rx="3.60714" ry="3.56326" fill="black"/>
<path d="M41.5804 35.2959C41.5804 36.2799 40.7729 37.0775 39.7768 37.0775C38.7807 37.0775 37.9732 36.2799 37.9732 35.2959C37.9732 34.3119 38.7807 33.5143 39.7768 33.5143C40.7729 33.5143 41.5804 34.3119 41.5804 35.2959Z" fill="white"/>
<path d="M65.9298 43.3132C60.304 42.387 60.5189 40.0294 60.5189 37.0775C60.5189 34.1256 62.9415 30.8418 65.9298 30.8418C71.3405 30.8418 75.8493 34.4051 75.8493 40.6408C75.8493 44.3137 71.3405 44.2041 65.9298 43.3132Z" fill="white"/>
<ellipse cx="3.60714" cy="3.56326" rx="3.60714" ry="3.56326" transform="matrix(-1 0 0 1 69.5368 33.5143)" fill="black"/>
<path d="M62.3225 35.2959C62.3225 36.2799 63.13 37.0775 64.1261 37.0775C65.1222 37.0775 65.9296 36.2799 65.9296 35.2959C65.9296 34.3119 65.1222 33.5143 64.1261 33.5143C63.13 33.5143 62.3225 34.3119 62.3225 35.2959Z" fill="white"/>
<path d="M52.0998 46.4618C51.7424 46.7089 51.2663 46.697 50.9218 46.4322L45.7176 42.4338C44.9602 41.8518 45.3717 40.6408 46.3268 40.6408H57.3135C58.2941 40.6408 58.6888 41.9055 57.8822 42.4633L52.0998 46.4618Z" fill="white"/>
<path d="M33.1027 4.07552C33.2882 3.11281 34.6051 2.96519 35.0003 3.8628L43.9625 24.2192L35.8035 8.89259C35.3812 8.09947 34.2085 8.22143 33.9596 9.08436L28.4745 28.0954L33.1027 4.07552Z" fill="#010101"/>
<path d="M69.574 4.63576C69.3885 3.67305 68.0717 3.52543 67.6765 4.42304L58.7143 24.7794L66.8733 9.45283C67.2955 8.65971 68.4682 8.78167 68.7172 9.6446L74.2022 28.6556L69.574 4.63576Z" fill="#010101"/>
</svg>
