<svg width="83" height="42" viewBox="0 0 83 42" fill="none" xmlns="http://www.w3.org/2000/svg">
<path d="M67.4374 42C66.6963 33.8407 63.0398 24.0961 58.5445 19.7472C54.0492 15.3983 44.893 15.2966 38.5356 15.2966C32.1783 15.2966 26.7274 16.8818 22.232 21.2307C17.7367 25.5796 14.8213 36.0659 14.8213 42H41.334H67.4374Z" fill="#010101"/>
<path d="M30.3836 35.6697C35.0068 34.907 34.8301 32.9654 34.8301 30.5345C34.8301 28.1035 32.8393 25.3992 30.3836 25.3992C25.9372 25.3992 22.2319 28.3336 22.2319 33.4689C22.2319 36.4937 25.9372 36.4034 30.3836 35.6697Z" fill="white"/>
<ellipse cx="30.3837" cy="30.5345" rx="2.96428" ry="2.93445" fill="black"/>
<path d="M33.3481 29.0673C33.3481 29.8776 32.6845 30.5345 31.8659 30.5345C31.0474 30.5345 30.3838 29.8776 30.3838 29.0673C30.3838 28.257 31.0474 27.6001 31.8659 27.6001C32.6845 27.6001 33.3481 28.257 33.3481 29.0673Z" fill="white"/>
<path d="M53.3581 35.6697C48.7349 34.907 48.9116 32.9654 48.9116 30.5345C48.9116 28.1035 50.9024 25.3992 53.3581 25.3992C57.8045 25.3992 61.5098 28.3336 61.5098 33.4689C61.5098 36.4937 57.8045 36.4034 53.3581 35.6697Z" fill="white"/>
<ellipse cx="2.96429" cy="2.93445" rx="2.96429" ry="2.93445" transform="matrix(-1 0 0 1 56.3223 27.6001)" fill="black"/>
<path d="M50.3936 29.0673C50.3936 29.8776 51.0572 30.5345 51.8758 30.5345C52.6943 30.5345 53.3579 29.8776 53.3579 29.0673C53.3579 28.257 52.6943 27.6001 51.8758 27.6001C51.0572 27.6001 50.3936 28.257 50.3936 29.0673Z" fill="white"/>
<path d="M42.1006 38.188C41.7428 38.4359 41.2658 38.424 40.9209 38.1584L37.1582 35.2613C36.4018 34.6789 36.8136 33.469 37.7682 33.469H45.7118C46.692 33.469 47.087 34.7326 46.2814 35.2909L42.1006 38.188Z" fill="white"/>
<path d="M26.2736 3.91842C26.4588 2.95471 27.7762 2.80598 28.1708 3.70422L35.306 19.9452L28.8075 7.71194C28.3858 6.91813 27.2125 7.04107 26.9637 7.90512L22.5783 23.1373L26.2736 3.91842Z" fill="#010101"/>
<path d="M56.4608 4.37984C56.2755 3.41613 54.9582 3.26741 54.5635 4.16565L47.4284 20.4066L53.9268 8.17337C54.3485 7.37956 55.5219 7.50249 55.7707 8.36655L60.1561 23.5987L56.4608 4.37984Z" fill="#010101"/>
</svg>
